<?xml version="1.0" encoding="UTF-8"?>
<!DOCTYPE svg PUBLIC "-//W3C//DTD SVG 1.1//EN" "http://www.w3.org/Graphics/SVG/1.1/DTD/svg11.dtd">
<svg xmlns="http://www.w3.org/2000/svg" version="1.1" width="80px" height="94px" style="shape-rendering:geometricPrecision; text-rendering:geometricPrecision; image-rendering:optimizeQuality; fill-rule:evenodd; clip-rule:evenodd" xmlns:xlink="http://www.w3.org/1999/xlink">
<g><path style="opacity:0.969" fill="#0735a2" d="M 29.5,-0.5 C 35.8333,-0.5 42.1667,-0.5 48.5,-0.5C 55.3924,0.426492 62.3924,1.59316 69.5,3C 73.7703,4.27038 76.2703,7.10371 77,11.5C 77.7787,20.6587 78.612,29.6587 79.5,38.5C 79.5,41.1667 79.5,43.8333 79.5,46.5C 75.7712,70.2649 62.4379,85.9316 39.5,93.5C 39.1667,93.5 38.8333,93.5 38.5,93.5C 18.4387,87.4388 5.43874,74.4388 -0.5,54.5C -0.5,44.5 -0.5,34.5 -0.5,24.5C 0.221952,19.2894 1.05529,13.9561 2,8.5C 3.2506,5.61931 5.41727,3.78597 8.5,3C 15.6076,1.59316 22.6076,0.426492 29.5,-0.5 Z"/></g>
<g><path style="opacity:1" fill="#f2f4fa" d="M 32.5,6.5 C 44.6026,6.61538 56.6026,7.78205 68.5,10C 69.3333,10.8333 70.1667,11.6667 71,12.5C 72.8634,27.5191 72.8634,42.5191 71,57.5C 67.5696,67.7642 61.0696,75.4308 51.5,80.5C 45.5,69.1667 39.5,57.8333 33.5,46.5C 35.192,45.0314 37.192,44.3647 39.5,44.5C 44.0215,45.3959 48.5215,46.3959 53,47.5C 57.1724,47.054 61.0057,45.7207 64.5,43.5C 65.8333,37.1667 65.8333,30.8333 64.5,24.5C 60.7056,26.8232 56.5389,27.8232 52,27.5C 45.3333,26.1667 38.6667,24.8333 32,23.5C 28.8838,23.2803 26.0505,23.9469 23.5,25.5C 22.7078,20.7039 20.0411,17.3706 15.5,15.5C 13.6946,20.4977 14.528,24.831 18,28.5C 27.1667,46.8333 36.3333,65.1667 45.5,83.5C 43.5101,84.4981 41.5101,85.4981 39.5,86.5C 22.3299,81.1644 11.4965,69.8311 7,52.5C 6.33333,43.5 6.33333,34.5 7,25.5C 7.11858,20.7176 7.78525,16.0509 9,11.5C 10.4907,9.99627 12.324,9.16294 14.5,9C 20.6729,8.355 26.6729,7.52167 32.5,6.5 Z"/></g>
<g><path style="opacity:1" fill="#193ca5" d="M 29.5,13.5 C 41.2206,13.336 52.8872,14.0026 64.5,15.5C 64.762,16.9778 64.4287,18.3112 63.5,19.5C 60.1976,21.2371 56.6976,22.2371 53,22.5C 47.2242,22.0144 41.7242,20.5144 36.5,18C 32.8333,17.6667 29.1667,17.3333 25.5,17C 24.3279,16.5814 23.3279,15.9147 22.5,15C 25.0356,14.8138 27.369,14.3138 29.5,13.5 Z"/></g>
<g><path style="opacity:1" fill="#0a36a2" d="M 14.5,33.5 C 21.2167,47.9341 28.2167,62.2674 35.5,76.5C 26.8878,73.8459 20.3878,68.1793 16,59.5C 14.8497,56.2321 14.0164,52.8988 13.5,49.5C 13.1786,43.9738 13.5119,38.6405 14.5,33.5 Z"/></g>
<g><path style="opacity:1" fill="#a1b4dc" d="M 14.5,33.5 C 13.5119,38.6405 13.1786,43.9738 13.5,49.5C 12.1843,43.9871 12.1843,38.3204 13.5,32.5C 14.1067,32.6236 14.44,32.9569 14.5,33.5 Z"/></g>
<g><path style="opacity:1" fill="#163aa4" d="M 64.5,49.5 C 64.6852,58.4649 61.0185,65.7982 53.5,71.5C 49.2124,64.6058 45.8791,57.6058 43.5,50.5C 49.1569,53.9644 55.1569,54.4644 61.5,52C 62.9423,51.6232 63.9423,50.7899 64.5,49.5 Z"/></g>
</svg>
