<svg width="51" height="60" viewBox="0 0 51 60" fill="none" xmlns="http://www.w3.org/2000/svg">
<g filter="url(#filter0_d_27_1058)">
<path d="M25.6797 59.1134C12.6854 54.8048 4.50154 45.5795 3.24065 33.7737C2.70775 28.7757 3.59751 17.4966 4.19227 11.2395C4.38863 8.49291 6.34781 6.19895 9.01694 5.59037C14.8877 4.34433 20.8693 3.7027 26.8692 3.67542C32.8628 3.70377 38.8379 4.34539 44.7024 5.59037C47.3791 6.19163 49.3474 8.48731 49.5461 11.2395L49.5842 11.6512C50.3645 20.0914 51.0782 29.3358 50.4644 33.8791C48.5612 47.7912 37.67 56.0303 28.1015 59.099L26.874 59.5012L25.6797 59.1134Z" fill="#0033A1"/>
</g>
<path fill-rule="evenodd" clip-rule="evenodd" d="M27.0008 15.6754C18.6682 15.6754 11.8896 22.454 11.8896 30.7865C11.8896 39.119 18.6682 45.8976 27.0008 45.8976C35.3333 45.8976 42.1119 39.119 42.1119 30.7865C42.1119 22.454 35.3333 15.6754 27.0008 15.6754ZM27.0008 43.3791C20.0572 43.3791 14.4082 37.7301 14.4082 30.7865C14.4082 23.843 20.0572 18.1939 27.0008 18.1939C33.9443 18.1939 39.5934 23.843 39.5934 30.7865C39.5934 37.7301 33.9443 43.3791 27.0008 43.3791ZM33.6144 24.9499L26.9076 31.6554L22.0154 27.7416C21.4714 27.3072 20.6805 27.3979 20.2448 27.9393C19.8104 28.4821 19.8985 29.2742 20.4413 29.7086L26.2137 34.3263C26.4454 34.5114 26.7225 34.6021 27.0008 34.6021C27.3244 34.6021 27.6468 34.4787 27.8911 34.2331L35.395 26.7305C35.8874 26.2393 35.8874 25.4422 35.395 24.9499C34.9026 24.4587 34.1068 24.4587 33.6144 24.9499Z" fill="white"/>
<defs>
<filter id="filter0_d_27_1058" x="0.0071485" y="0.605415" width="50.689" height="58.8958" filterUnits="userSpaceOnUse" color-interpolation-filters="sRGB">
<feFlood flood-opacity="0" result="BackgroundImageFix"/>
<feColorMatrix in="SourceAlpha" type="matrix" values="0 0 0 0 0 0 0 0 0 0 0 0 0 0 0 0 0 0 127 0" result="hardAlpha"/>
<feOffset dx="-3.07" dy="-3.07"/>
<feComposite in2="hardAlpha" operator="out"/>
<feColorMatrix type="matrix" values="0 0 0 0 0 0 0 0 0 0 0 0 0 0 0.196078 0 0 0 0.15 0"/>
<feBlend mode="normal" in2="BackgroundImageFix" result="effect1_dropShadow_27_1058"/>
<feBlend mode="normal" in="SourceGraphic" in2="effect1_dropShadow_27_1058" result="shape"/>
</filter>
</defs>
</svg>
