<svg width="79" height="80" viewBox="0 0 79 80" fill="none" xmlns="http://www.w3.org/2000/svg">
<circle cx="39.5" cy="40.4468" r="39.5" fill="url(#paint0_linear_4_6658)"/>
<path fill-rule="evenodd" clip-rule="evenodd" d="M40.8008 52.2393C41.4658 51.8518 41.9458 50.9593 41.9458 49.9468V19.9468C41.9458 18.5918 41.0858 17.4468 40.0708 17.4468H36.9458V49.5168L40.8008 52.2393ZM22.9083 49.1843C22.9158 47.8718 23.4433 46.6343 24.3933 45.7043C26.2733 43.8593 29.4983 43.8268 31.4133 45.6093L31.9458 45.9868V17.4468H21.3208C20.3058 17.4468 19.4458 18.5918 19.4458 19.9468V49.9468C19.4458 51.3018 20.3058 52.4468 21.3208 52.4468H24.1633C23.3558 51.5368 22.9008 50.3968 22.9083 49.1843ZM44.4458 26.6293L58.5658 38.6293C60.6583 40.1868 61.9458 42.7518 61.9458 45.4393V63.6968C61.9458 64.3868 61.3858 64.9468 60.6958 64.9468C60.0058 64.9468 59.4458 64.3868 59.4458 63.6968V45.4393C59.4458 43.5368 58.5358 41.7218 57.0083 40.5843L44.4458 29.9093V49.9468C44.4458 52.1343 43.2008 53.9693 41.4808 54.6393C41.0583 54.9943 40.4458 55.0518 39.9733 54.7168L29.8383 47.5443C29.0983 46.8718 28.4183 46.7518 27.9508 46.7518C27.2708 46.7518 26.6283 47.0143 26.1408 47.4918C25.6708 47.9493 25.4108 48.5568 25.4083 49.1993C25.4033 49.8368 25.6533 50.4418 26.1158 50.9018L38.0108 62.8118C38.4983 63.3018 38.4983 64.0943 38.0108 64.5818C37.7658 64.8243 37.4458 64.9468 37.1258 64.9468C36.8058 64.9468 36.4858 64.8243 36.2433 64.5818L26.6208 54.9468H21.3208C18.9083 54.9468 16.9458 52.7043 16.9458 49.9468V19.9468C16.9458 17.1893 18.9083 14.9468 21.3208 14.9468H40.0708C42.4833 14.9468 44.4458 17.1893 44.4458 19.9468V26.6293ZM26.9458 23.6968C26.9458 23.0068 27.5058 22.4468 28.1958 22.4468C28.8858 22.4468 29.4458 23.0068 29.4458 23.6968V31.1968C29.4458 31.8868 28.8858 32.4468 28.1958 32.4468C27.5058 32.4468 26.9458 31.8868 26.9458 31.1968V23.6968Z" fill="url(#paint1_linear_4_6658)"/>
<mask id="mask0_4_6658" style="mask-type:luminance" maskUnits="userSpaceOnUse" x="16" y="14" width="46" height="51">
<path fill-rule="evenodd" clip-rule="evenodd" d="M40.8008 52.2393C41.4658 51.8518 41.9458 50.9593 41.9458 49.9468V19.9468C41.9458 18.5918 41.0858 17.4468 40.0708 17.4468H36.9458V49.5168L40.8008 52.2393ZM22.9083 49.1843C22.9158 47.8718 23.4433 46.6343 24.3933 45.7043C26.2733 43.8593 29.4983 43.8268 31.4133 45.6093L31.9458 45.9868V17.4468H21.3208C20.3058 17.4468 19.4458 18.5918 19.4458 19.9468V49.9468C19.4458 51.3018 20.3058 52.4468 21.3208 52.4468H24.1633C23.3558 51.5368 22.9008 50.3968 22.9083 49.1843ZM44.4458 26.6293L58.5658 38.6293C60.6583 40.1868 61.9458 42.7518 61.9458 45.4393V63.6968C61.9458 64.3868 61.3858 64.9468 60.6958 64.9468C60.0058 64.9468 59.4458 64.3868 59.4458 63.6968V45.4393C59.4458 43.5368 58.5358 41.7218 57.0083 40.5843L44.4458 29.9093V49.9468C44.4458 52.1343 43.2008 53.9693 41.4808 54.6393C41.0583 54.9943 40.4458 55.0518 39.9733 54.7168L29.8383 47.5443C29.0983 46.8718 28.4183 46.7518 27.9508 46.7518C27.2708 46.7518 26.6283 47.0143 26.1408 47.4918C25.6708 47.9493 25.4108 48.5568 25.4083 49.1993C25.4033 49.8368 25.6533 50.4418 26.1158 50.9018L38.0108 62.8118C38.4983 63.3018 38.4983 64.0943 38.0108 64.5818C37.7658 64.8243 37.4458 64.9468 37.1258 64.9468C36.8058 64.9468 36.4858 64.8243 36.2433 64.5818L26.6208 54.9468H21.3208C18.9083 54.9468 16.9458 52.7043 16.9458 49.9468V19.9468C16.9458 17.1893 18.9083 14.9468 21.3208 14.9468H40.0708C42.4833 14.9468 44.4458 17.1893 44.4458 19.9468V26.6293ZM26.9458 23.6968C26.9458 23.0068 27.5058 22.4468 28.1958 22.4468C28.8858 22.4468 29.4458 23.0068 29.4458 23.6968V31.1968C29.4458 31.8868 28.8858 32.4468 28.1958 32.4468C27.5058 32.4468 26.9458 31.8868 26.9458 31.1968V23.6968Z" fill="white"/>
</mask>
<g mask="url(#mask0_4_6658)">
<rect width="60" height="60" transform="translate(9.4458 9.94684)" fill="url(#paint2_linear_4_6658)"/>
<rect x="9.4458" y="9.94684" width="60" height="60" fill="#0033AA"/>
</g>
<defs>
<linearGradient id="paint0_linear_4_6658" x1="-39.5" y1="40.4468" x2="39.5" y2="119.447" gradientUnits="userSpaceOnUse">
<stop stop-color="#F2F3F4"/>
<stop offset="1" stop-color="#E8E8E8"/>
</linearGradient>
<linearGradient id="paint1_linear_4_6658" x1="0.654821" y1="34.2797" x2="39.6503" y2="74.3906" gradientUnits="userSpaceOnUse">
<stop stop-color="#FF681D"/>
<stop offset="1" stop-color="#AA0050"/>
</linearGradient>
<linearGradient id="paint2_linear_4_6658" x1="-21.7213" y1="23.1994" x2="24.6775" y2="76.2282" gradientUnits="userSpaceOnUse">
<stop stop-color="#FF681D"/>
<stop offset="1" stop-color="#AA0050"/>
</linearGradient>
</defs>
</svg>
