<svg width="51" height="60" viewBox="0 0 51 60" fill="none" xmlns="http://www.w3.org/2000/svg">
<g filter="url(#filter0_d_27_1096)">
<path d="M25.6797 59.1134C12.6854 54.8048 4.50154 45.5795 3.24065 33.7737C2.70775 28.7757 3.59751 17.4966 4.19227 11.2395C4.38863 8.49291 6.34781 6.19895 9.01694 5.59037C14.8877 4.34433 20.8693 3.7027 26.8692 3.67542C32.8628 3.70377 38.8379 4.34539 44.7024 5.59037C47.3791 6.19163 49.3474 8.48731 49.5461 11.2395L49.5842 11.6512C50.3645 20.0914 51.0782 29.3358 50.4644 33.8791C48.5612 47.7912 37.67 56.0303 28.1015 59.099L26.874 59.5012L25.6797 59.1134Z" fill="#0033A1"/>
</g>
<path fill-rule="evenodd" clip-rule="evenodd" d="M13.6665 20.231V29.0458C13.6665 37.7347 19.5033 44.4718 27.4443 46.6755C35.3853 44.4718 41.2221 37.7347 41.2221 29.0458V20.231C32.7212 15.194 22.1699 15.194 13.6665 20.231ZM38.717 29.0458C38.717 36.0435 34.3156 41.8651 27.4443 44.0487C20.5729 41.8651 16.1716 36.0435 16.1716 29.0458V21.717C19.6523 19.9175 23.5201 18.9718 27.4443 18.9718C31.3684 18.9718 35.2387 19.9175 38.717 21.717V29.0458ZM21.1817 29.0458V25.0414C23.2082 24.3551 25.3112 24.0088 27.4443 24.0088V21.4903C24.72 21.4903 22.0396 21.9915 19.4795 22.9838L18.6766 23.2935V29.0458C18.6766 34.5135 21.7766 39.0557 26.9671 41.2002L27.9202 38.8693C23.7005 37.1278 21.1817 33.4558 21.1817 29.0458Z" fill="white"/>
<defs>
<filter id="filter0_d_27_1096" x="0.0071485" y="0.605415" width="50.689" height="58.8958" filterUnits="userSpaceOnUse" color-interpolation-filters="sRGB">
<feFlood flood-opacity="0" result="BackgroundImageFix"/>
<feColorMatrix in="SourceAlpha" type="matrix" values="0 0 0 0 0 0 0 0 0 0 0 0 0 0 0 0 0 0 127 0" result="hardAlpha"/>
<feOffset dx="-3.07" dy="-3.07"/>
<feComposite in2="hardAlpha" operator="out"/>
<feColorMatrix type="matrix" values="0 0 0 0 0 0 0 0 0 0 0 0 0 0 0.196078 0 0 0 0.15 0"/>
<feBlend mode="normal" in2="BackgroundImageFix" result="effect1_dropShadow_27_1096"/>
<feBlend mode="normal" in="SourceGraphic" in2="effect1_dropShadow_27_1096" result="shape"/>
</filter>
</defs>
</svg>
