<svg width="51" height="60" viewBox="0 0 51 60" fill="none" xmlns="http://www.w3.org/2000/svg">
<g filter="url(#filter0_d_27_1038)">
<path d="M25.6797 59.1134C12.6854 54.8048 4.50154 45.5795 3.24065 33.7737C2.70775 28.7757 3.59751 17.4966 4.19227 11.2395C4.38863 8.49291 6.34781 6.19895 9.01694 5.59037C14.8877 4.34433 20.8693 3.7027 26.8692 3.67542C32.8628 3.70377 38.8379 4.34539 44.7024 5.59037C47.3791 6.19163 49.3474 8.48731 49.5461 11.2395L49.5842 11.6512C50.3645 20.0914 51.0782 29.3358 50.4644 33.8791C48.5612 47.7912 37.67 56.0303 28.1015 59.099L26.874 59.5012L25.6797 59.1134Z" fill="#0051FF"/>
</g>
<path fill-rule="evenodd" clip-rule="evenodd" d="M20.8245 30.5273C18.7395 30.5273 17.0428 32.2222 17.0428 34.305V35.5643H14.5216V34.305C14.5216 30.8333 17.3491 28.0087 20.8245 28.0087C24.2999 28.0087 27.1274 30.8333 27.1274 34.305V35.5643H24.6062V34.305C24.6062 32.2222 22.9095 30.5273 20.8245 30.5273ZM35.9194 29.268C32.444 29.268 29.648 32.0925 29.648 35.5643V36.8273H12V39.3421H34.6903V36.8273H32.1692V35.5643C32.1692 33.4815 33.8344 31.7865 35.9194 31.7865C38.0043 31.7865 39.7011 33.4815 39.7011 35.5643V36.8273H37.2114V46.8976H39.7011V39.3421H42.2222V35.5643C42.2222 32.0925 39.3948 29.268 35.9194 29.268ZM32.1697 46.8906H34.6593V40.6056H32.1697V46.8906ZM20.8245 19.1939C22.2149 19.1939 23.3457 20.3235 23.3457 21.7125C23.3457 23.1014 22.2149 24.231 20.8245 24.231C19.4341 24.231 18.3034 23.1014 18.3034 21.7125C18.3034 20.3235 19.4341 19.1939 20.8245 19.1939ZM20.8245 26.7495C23.6053 26.7495 25.8668 24.4904 25.8668 21.7125C25.8668 18.9345 23.6053 16.6754 20.8245 16.6754C18.0437 16.6754 15.7822 18.9345 15.7822 21.7125C15.7822 24.4904 18.0437 26.7495 20.8245 26.7495ZM35.9514 20.4532C37.3418 20.4532 38.4725 21.5827 38.4725 22.9717C38.4725 24.3607 37.3418 25.4902 35.9514 25.4902C34.561 25.4902 33.4302 24.3607 33.4302 22.9717C33.4302 21.5827 34.561 20.4532 35.9514 20.4532ZM35.9514 28.0087C38.7322 28.0087 40.9937 25.7496 40.9937 22.9717C40.9937 20.1938 38.7322 17.9347 35.9514 17.9347C33.1706 17.9347 30.9091 20.1938 30.9091 22.9717C30.9091 25.7496 33.1706 28.0087 35.9514 28.0087Z" fill="white"/>
<defs>
<filter id="filter0_d_27_1038" x="0.0071485" y="0.605415" width="50.689" height="58.8958" filterUnits="userSpaceOnUse" color-interpolation-filters="sRGB">
<feFlood flood-opacity="0" result="BackgroundImageFix"/>
<feColorMatrix in="SourceAlpha" type="matrix" values="0 0 0 0 0 0 0 0 0 0 0 0 0 0 0 0 0 0 127 0" result="hardAlpha"/>
<feOffset dx="-3.07" dy="-3.07"/>
<feComposite in2="hardAlpha" operator="out"/>
<feColorMatrix type="matrix" values="0 0 0 0 0 0 0 0 0 0 0 0 0 0 0.196078 0 0 0 0.15 0"/>
<feBlend mode="normal" in2="BackgroundImageFix" result="effect1_dropShadow_27_1038"/>
<feBlend mode="normal" in="SourceGraphic" in2="effect1_dropShadow_27_1038" result="shape"/>
</filter>
</defs>
</svg>
