<svg width="51" height="60" viewBox="0 0 51 60" fill="none" xmlns="http://www.w3.org/2000/svg">
<g filter="url(#filter0_d_27_1025)">
<path d="M25.6797 59.1134C12.6854 54.8048 4.50154 45.5795 3.24065 33.7737C2.70775 28.7757 3.59751 17.4966 4.19227 11.2395C4.38863 8.49291 6.34781 6.19895 9.01694 5.59037C14.8877 4.34433 20.8693 3.7027 26.8692 3.67542C32.8628 3.70377 38.8379 4.34539 44.7024 5.59037C47.3791 6.19163 49.3474 8.48731 49.5461 11.2395L49.5842 11.6512C50.3645 20.0914 51.0782 29.3358 50.4644 33.8791C48.5612 47.7912 37.67 56.0303 28.1015 59.099L26.874 59.5012L25.6797 59.1134Z" fill="#0033A1"/>
</g>
<path fill-rule="evenodd" clip-rule="evenodd" d="M40.8526 16.5641C34.6659 16.5641 29.3354 20.3016 27.0008 25.637C24.6648 20.3016 19.3356 16.5641 13.1489 16.5641H11.8896V17.8233C11.8896 25.7302 17.9971 32.2406 25.7415 32.8828L28.26 32.9345V32.8828C36.0045 32.2406 42.1119 25.7302 42.1119 17.8233V16.5641H40.8526ZM14.4787 19.1519C20.3619 19.7727 25.0514 24.4609 25.671 30.3467C19.7865 29.7259 15.0982 25.0376 14.4787 19.1519ZM28.3305 30.3467C28.9501 24.4609 33.6383 19.7727 39.5228 19.1519C38.9033 25.0376 34.2138 29.7259 28.3305 30.3467ZM16.9267 36.711C16.9267 42.2769 21.4361 46.7863 27.0008 46.7863C32.5654 46.7863 37.0748 42.2769 37.0748 36.711V34.1937H16.9267V36.711ZM34.5563 36.7122C34.5551 40.8791 31.1676 44.2678 27.0008 44.2678C22.8339 44.2678 19.4465 40.8791 19.4452 36.7122H34.5563Z" fill="white"/>
<defs>
<filter id="filter0_d_27_1025" x="0.0071485" y="0.605415" width="50.689" height="58.8958" filterUnits="userSpaceOnUse" color-interpolation-filters="sRGB">
<feFlood flood-opacity="0" result="BackgroundImageFix"/>
<feColorMatrix in="SourceAlpha" type="matrix" values="0 0 0 0 0 0 0 0 0 0 0 0 0 0 0 0 0 0 127 0" result="hardAlpha"/>
<feOffset dx="-3.07" dy="-3.07"/>
<feComposite in2="hardAlpha" operator="out"/>
<feColorMatrix type="matrix" values="0 0 0 0 0 0 0 0 0 0 0 0 0 0 0.196078 0 0 0 0.15 0"/>
<feBlend mode="normal" in2="BackgroundImageFix" result="effect1_dropShadow_27_1025"/>
<feBlend mode="normal" in="SourceGraphic" in2="effect1_dropShadow_27_1025" result="shape"/>
</filter>
</defs>
</svg>
