<svg width="51" height="60" viewBox="0 0 51 60" fill="none" xmlns="http://www.w3.org/2000/svg">
<g filter="url(#filter0_d_27_1123)">
<path d="M25.6797 59.1134C12.6854 54.8048 4.50154 45.5795 3.24065 33.7737C2.70775 28.7757 3.59751 17.4966 4.19227 11.2395C4.38863 8.49291 6.34781 6.19895 9.01694 5.59037C14.8877 4.34433 20.8693 3.7027 26.8692 3.67542C32.8628 3.70377 38.8379 4.34539 44.7024 5.59037C47.3791 6.19163 49.3474 8.48731 49.5461 11.2395L49.5842 11.6512C50.3645 20.0914 51.0782 29.3358 50.4644 33.8791C48.5612 47.7912 37.67 56.0303 28.1015 59.099L26.874 59.5012L25.6797 59.1134Z" fill="#0033A1"/>
</g>
<path fill-rule="evenodd" clip-rule="evenodd" d="M25.6296 25.2671H28.1481V29.579L31.8793 31.7355L30.62 33.9148L26.8888 31.7595L23.1551 33.9135L21.8958 31.7318L25.6296 29.5777V25.2671ZM36.9655 40.3783C38.3532 40.3783 39.4815 39.2496 39.4815 37.8615C39.4815 36.4733 38.3532 35.3446 36.9655 35.3446C35.5778 35.3446 34.4494 36.4733 34.4494 37.8615C34.4494 39.2496 35.5778 40.3783 36.9655 40.3783ZM36.9655 32.8253C39.7409 32.8253 42 35.0839 42 37.8615C42 40.639 39.7409 42.8976 36.9655 42.8976C34.19 42.8976 31.9309 40.639 31.9309 37.8615C31.9309 35.0839 34.19 32.8253 36.9655 32.8253ZM26.8864 20.2284C28.2741 20.2284 29.4024 19.0998 29.4024 17.7116C29.4024 16.3234 28.2741 15.1948 26.8864 15.1948C25.4987 15.1948 24.3704 16.3234 24.3704 17.7116C24.3704 19.0998 25.4987 20.2284 26.8864 20.2284ZM26.8864 12.6754C29.6619 12.6754 31.921 14.934 31.921 17.7116C31.921 20.4892 29.6619 22.7478 26.8864 22.7478C24.111 22.7478 21.8519 20.4892 21.8519 17.7116C21.8519 14.934 24.111 12.6754 26.8864 12.6754ZM16.8123 40.3783C18.2 40.3783 19.3283 39.2496 19.3283 37.8615C19.3283 36.4733 18.2 35.3446 16.8123 35.3446C15.4246 35.3446 14.2963 36.4733 14.2963 37.8615C14.2963 39.2496 15.4246 40.3783 16.8123 40.3783ZM16.8123 32.8253C19.5877 32.8253 21.8469 35.0839 21.8469 37.8615C21.8469 40.639 19.5877 42.8976 16.8123 42.8976C14.0369 42.8976 11.7778 40.639 11.7778 37.8615C11.7778 35.0839 14.0369 32.8253 16.8123 32.8253Z" fill="white"/>
<defs>
<filter id="filter0_d_27_1123" x="0.0071485" y="0.605415" width="50.689" height="58.8958" filterUnits="userSpaceOnUse" color-interpolation-filters="sRGB">
<feFlood flood-opacity="0" result="BackgroundImageFix"/>
<feColorMatrix in="SourceAlpha" type="matrix" values="0 0 0 0 0 0 0 0 0 0 0 0 0 0 0 0 0 0 127 0" result="hardAlpha"/>
<feOffset dx="-3.07" dy="-3.07"/>
<feComposite in2="hardAlpha" operator="out"/>
<feColorMatrix type="matrix" values="0 0 0 0 0 0 0 0 0 0 0 0 0 0 0.196078 0 0 0 0.15 0"/>
<feBlend mode="normal" in2="BackgroundImageFix" result="effect1_dropShadow_27_1123"/>
<feBlend mode="normal" in="SourceGraphic" in2="effect1_dropShadow_27_1123" result="shape"/>
</filter>
</defs>
</svg>
