<svg width="24" height="25" viewBox="0 0 24 25" fill="none" xmlns="http://www.w3.org/2000/svg">
<path fill-rule="evenodd" clip-rule="evenodd" d="M20.6066 7.36877H19.6185C19.077 7.36877 18.58 7.55077 18.1729 7.85077L20.2726 9.36877H20.6066C20.8784 9.36877 21.1007 9.59277 21.1007 9.86877V9.96777L23.0769 11.3958V9.86877C23.0769 8.49077 21.9692 7.36877 20.6066 7.36877ZM6.77282 7.36877H5.78469C4.60783 7.36877 3.62464 8.20677 3.37761 9.32377C4.15823 9.07277 4.98332 8.93777 5.83508 8.93777C6.66116 8.93777 7.47735 9.06577 8.25501 9.30877C8.58801 9.41377 8.91014 9.54577 9.22535 9.68977C9.13346 8.39677 8.07517 7.36877 6.77282 7.36877ZM21.1007 3.86877C21.1007 4.14477 20.8784 4.36877 20.6066 4.36877H19.6185C19.3468 4.36877 19.1244 4.14477 19.1244 3.86877V2.86877C19.1244 2.59277 19.3468 2.36877 19.6185 2.36877H20.6066C20.8784 2.36877 21.1007 2.59277 21.1007 2.86877V3.86877ZM20.6066 0.368774H19.6185C18.2559 0.368774 17.1482 1.49077 17.1482 2.86877V3.86877C17.1482 5.24677 18.2559 6.36877 19.6185 6.36877H20.6066C21.9692 6.36877 23.0769 5.24677 23.0769 3.86877V2.86877C23.0769 1.49077 21.9692 0.368774 20.6066 0.368774ZM5.29062 2.86877C5.29062 2.59277 5.51295 2.36877 5.78469 2.36877H6.77282C7.04455 2.36877 7.26688 2.59277 7.26688 2.86877V3.86877C7.26688 4.14477 7.04455 4.36877 6.77282 4.36877H5.78469C5.51295 4.36877 5.29062 4.14477 5.29062 3.86877V2.86877ZM5.78469 6.36877H6.77282C8.13545 6.36877 9.24314 5.24677 9.24314 3.86877V2.86877C9.24314 1.49077 8.13545 0.368774 6.77282 0.368774H5.78469C4.42206 0.368774 3.31437 1.49077 3.31437 2.86877V3.86877C3.31437 5.24677 4.42206 6.36877 5.78469 6.36877ZM21.1007 14.8838V16.3488C21.1007 18.5648 19.906 20.5958 17.9871 21.6468C15.7687 22.8508 12.9713 22.4628 11.1828 20.8278L3.82523 13.4618C5.32521 12.5988 7.51589 12.8748 8.76686 14.1398L9.84293 15.2298C10.1058 15.4948 10.4526 15.6408 10.8202 15.6408C11.585 15.6408 12.2075 15.0128 12.2075 14.2388V3.36877C12.2075 2.81777 12.6502 2.36877 13.1957 2.36877C13.7411 2.36877 14.1838 2.81777 14.1838 3.36877V9.88377L21.1007 14.8838ZM16.16 3.36877C16.16 1.71477 14.83 0.368774 13.1957 0.368774C11.5613 0.368774 10.2313 1.71477 10.2313 3.36877V12.7948L10.1641 12.7258C9.04057 11.5898 7.46253 10.9378 5.83508 10.9378C4.22542 10.9378 2.73137 11.5498 1.62961 12.6598L0.923096 13.3708L9.82515 22.2808C11.2975 23.6268 13.1966 24.3688 15.1719 24.3688C16.4841 24.3688 17.744 24.0468 18.9228 23.4088C21.4861 22.0058 23.0769 19.3008 23.0769 16.3488V13.8538L16.16 8.85377V3.36877Z" fill="#0033AA"/>
</svg>
