<svg width="79" height="80" viewBox="0 0 79 80" fill="none" xmlns="http://www.w3.org/2000/svg">
<circle cx="39.5" cy="40.4468" r="39.5" fill="url(#paint0_linear_4_6710)"/>
<path fill-rule="evenodd" clip-rule="evenodd" d="M60.6953 19.9468H18.1953C16.1953 19.9468 14.4453 21.6968 14.4453 23.6968V26.1968V53.6968C14.4453 57.1968 17.1953 59.9468 20.6953 59.9468H58.1953C61.6953 59.9468 64.4453 57.1968 64.4453 53.6968V26.1968V23.6968C64.4453 21.6968 62.6953 19.9468 60.6953 19.9468ZM25.6953 54.9468C23.6953 54.9468 21.9453 53.1968 21.9453 51.1968C21.9453 47.6968 23.9453 44.9468 26.6953 43.4468C25.4453 42.1968 24.4453 40.6968 24.4453 38.6968C24.4453 35.1968 27.1953 32.4468 30.6953 32.4468C34.1953 32.4468 36.9453 35.1968 36.9453 38.6968C36.9453 40.6968 35.9453 42.1968 34.6953 43.4468C37.4453 44.9468 39.4453 47.6968 39.4453 51.1968C39.4453 53.1968 37.6953 54.9468 35.6953 54.9468H25.6953ZM34.4453 38.6968C34.4453 36.6968 32.6953 34.9468 30.6953 34.9468C28.6953 34.9468 26.9453 36.6968 26.9453 38.6968C26.9453 40.6968 28.6953 42.4468 30.6953 42.4468C32.6953 42.4468 34.4453 40.6968 34.4453 38.6968ZM30.6953 44.9468C34.1953 44.9468 36.9453 47.6968 36.9453 51.1968C36.9453 51.9468 36.4453 52.4468 35.6953 52.4468H25.6953C24.9453 52.4468 24.4453 51.9468 24.4453 51.1968C24.4453 47.6968 27.1953 44.9468 30.6953 44.9468ZM53.6953 42.4468H44.9453C43.4453 42.4468 41.9453 40.9468 41.9453 39.1968V35.4468C41.9453 33.9468 43.4453 32.4468 45.1953 32.4468H53.9453C55.4453 32.4468 56.9453 33.9468 56.6953 35.6968V39.4468C56.6953 40.9468 55.4453 42.4468 53.6953 42.4468ZM43.1953 47.4468H55.6953C56.4453 47.4468 56.9453 46.9468 56.9453 46.1968C56.9453 45.4468 56.4453 44.9468 55.6953 44.9468H43.1953C42.4453 44.9468 41.9453 45.4468 41.9453 46.1968C41.9453 46.9468 42.4453 47.4468 43.1953 47.4468ZM55.6953 52.4468H43.1953C42.4453 52.4468 41.9453 51.9468 41.9453 51.1968C41.9453 50.4468 42.4453 49.9468 43.1953 49.9468H55.6953C56.4453 49.9468 56.9453 50.4468 56.9453 51.1968C56.9453 51.9468 56.4453 52.4468 55.6953 52.4468ZM58.1953 57.4468C60.1953 57.4468 61.9453 55.6968 61.9453 53.6968V27.4468H16.9453V53.6968C16.9453 55.6968 18.6953 57.4468 20.6953 57.4468H58.1953Z" fill="#767676"/>
<mask id="mask0_4_6710" style="mask-type:luminance" maskUnits="userSpaceOnUse" x="14" y="19" width="51" height="41">
<path fill-rule="evenodd" clip-rule="evenodd" d="M60.6953 19.9468H18.1953C16.1953 19.9468 14.4453 21.6968 14.4453 23.6968V26.1968V53.6968C14.4453 57.1968 17.1953 59.9468 20.6953 59.9468H58.1953C61.6953 59.9468 64.4453 57.1968 64.4453 53.6968V26.1968V23.6968C64.4453 21.6968 62.6953 19.9468 60.6953 19.9468ZM25.6953 54.9468C23.6953 54.9468 21.9453 53.1968 21.9453 51.1968C21.9453 47.6968 23.9453 44.9468 26.6953 43.4468C25.4453 42.1968 24.4453 40.6968 24.4453 38.6968C24.4453 35.1968 27.1953 32.4468 30.6953 32.4468C34.1953 32.4468 36.9453 35.1968 36.9453 38.6968C36.9453 40.6968 35.9453 42.1968 34.6953 43.4468C37.4453 44.9468 39.4453 47.6968 39.4453 51.1968C39.4453 53.1968 37.6953 54.9468 35.6953 54.9468H25.6953ZM34.4453 38.6968C34.4453 36.6968 32.6953 34.9468 30.6953 34.9468C28.6953 34.9468 26.9453 36.6968 26.9453 38.6968C26.9453 40.6968 28.6953 42.4468 30.6953 42.4468C32.6953 42.4468 34.4453 40.6968 34.4453 38.6968ZM30.6953 44.9468C34.1953 44.9468 36.9453 47.6968 36.9453 51.1968C36.9453 51.9468 36.4453 52.4468 35.6953 52.4468H25.6953C24.9453 52.4468 24.4453 51.9468 24.4453 51.1968C24.4453 47.6968 27.1953 44.9468 30.6953 44.9468ZM53.6953 42.4468H44.9453C43.4453 42.4468 41.9453 40.9468 41.9453 39.1968V35.4468C41.9453 33.9468 43.4453 32.4468 45.1953 32.4468H53.9453C55.4453 32.4468 56.9453 33.9468 56.6953 35.6968V39.4468C56.6953 40.9468 55.4453 42.4468 53.6953 42.4468ZM43.1953 47.4468H55.6953C56.4453 47.4468 56.9453 46.9468 56.9453 46.1968C56.9453 45.4468 56.4453 44.9468 55.6953 44.9468H43.1953C42.4453 44.9468 41.9453 45.4468 41.9453 46.1968C41.9453 46.9468 42.4453 47.4468 43.1953 47.4468ZM55.6953 52.4468H43.1953C42.4453 52.4468 41.9453 51.9468 41.9453 51.1968C41.9453 50.4468 42.4453 49.9468 43.1953 49.9468H55.6953C56.4453 49.9468 56.9453 50.4468 56.9453 51.1968C56.9453 51.9468 56.4453 52.4468 55.6953 52.4468ZM58.1953 57.4468C60.1953 57.4468 61.9453 55.6968 61.9453 53.6968V27.4468H16.9453V53.6968C16.9453 55.6968 18.6953 57.4468 20.6953 57.4468H58.1953Z" fill="white"/>
</mask>
<g mask="url(#mask0_4_6710)">
<rect x="9.44531" y="9.94684" width="60" height="60" fill="#0033AA"/>
</g>
<defs>
<linearGradient id="paint0_linear_4_6710" x1="-39.5" y1="40.4468" x2="39.5" y2="119.447" gradientUnits="userSpaceOnUse">
<stop stop-color="#F2F3F4"/>
<stop offset="1" stop-color="#E8E8E8"/>
</linearGradient>
</defs>
</svg>
