<svg width="79" height="80" viewBox="0 0 79 80" fill="none" xmlns="http://www.w3.org/2000/svg">
<circle cx="39.5" cy="40.4469" r="39.5" fill="url(#paint0_linear_4_6659)"/>
<path fill-rule="evenodd" clip-rule="evenodd" d="M51.525 61.9069C52.5275 60.1119 53.3175 57.6319 53.7825 54.7269C56.6825 54.2619 59.1675 53.4744 60.96 52.4719C59.66 57.0194 56.0725 60.6044 51.525 61.9069M34.54 52.4719C36.335 53.4744 38.8175 54.2619 41.7175 54.7269C42.185 57.6319 42.9725 60.1119 43.975 61.9069C39.4275 60.6044 35.8425 57.0194 34.54 52.4719M16.5 44.9469V43.6969C16.5 37.4919 21.5475 32.4469 27.75 32.4469C31.3775 32.4469 34.5775 34.1944 36.6275 36.8719C33.765 39.5669 31.8825 43.2844 31.565 47.4469H19C17.62 47.4469 16.5 46.3244 16.5 44.9469M21.5 23.6969C21.5 20.2494 24.3025 17.4469 27.75 17.4469C31.1975 17.4469 34 20.2494 34 23.6969C34 27.1419 31.1975 29.9469 27.75 29.9469C24.3025 29.9469 21.5 27.1419 21.5 23.6969M60.96 44.9219C59.1675 43.9194 56.6825 43.1294 53.7825 42.6644C53.3175 39.7619 52.5275 37.2794 51.525 35.4869C56.0725 36.7894 59.66 40.3719 60.96 44.9219M51.1825 42.3444C50.075 42.2494 48.93 42.1969 47.75 42.1969C46.5725 42.1969 45.4275 42.2494 44.3175 42.3444C45.2275 37.4869 47 34.9469 47.75 34.9469C48.5 34.9469 50.2725 37.4869 51.1825 42.3444M43.975 35.4869C42.9725 37.2794 42.185 39.7619 41.7175 42.6644C38.8175 43.1294 36.335 43.9194 34.54 44.9219C35.8425 40.3719 39.4275 36.7894 43.975 35.4869M34 48.6969C34 47.9469 36.5425 46.1744 41.3975 45.2644C41.3025 46.3719 41.2525 47.5169 41.2525 48.6969C41.2525 49.8769 41.3025 51.0219 41.3975 52.1294C36.5425 51.2194 34 49.4469 34 48.6969M47.75 52.6969C46.3725 52.6969 45.1325 52.6094 43.9575 52.4894C43.8375 51.3144 43.7525 50.0744 43.7525 48.6969C43.7525 47.3194 43.8375 46.0794 43.9575 44.9044C45.1325 44.7819 46.3725 44.6969 47.75 44.6969C49.1275 44.6969 50.3675 44.7819 51.545 44.9044C51.665 46.0794 51.75 47.3194 51.75 48.6969C51.75 50.0744 51.665 51.3144 51.545 52.4894C50.3675 52.6094 49.1275 52.6969 47.75 52.6969M47.75 62.4469C47 62.4469 45.2275 59.9044 44.3175 55.0469C45.4275 55.1419 46.5725 55.1969 47.75 55.1969C48.93 55.1969 50.075 55.1419 51.1825 55.0469C50.2725 59.9044 48.5 62.4469 47.75 62.4469M54.1025 52.1294C54.1975 51.0219 54.25 49.8769 54.25 48.6969C54.25 47.5169 54.1975 46.3719 54.1025 45.2644C58.96 46.1744 61.5 47.9469 61.5 48.6969C61.5 49.4469 58.96 51.2194 54.1025 52.1294M47.75 32.4469C44.3475 32.4469 41.19 33.4969 38.58 35.2844C37.065 33.3369 35.05 31.8019 32.72 30.8894C35.0025 29.3094 36.5 26.6819 36.5 23.6969C36.5 18.8644 32.5825 14.9469 27.75 14.9469C22.92 14.9469 19 18.8644 19 23.6969C19 26.6819 20.5025 29.3094 22.7825 30.8894C17.6525 32.8869 14 37.8669 14 43.6969V44.9469C14 47.7044 16.245 49.9469 19 49.9469H31.565C32.2025 58.3344 39.1975 64.9469 47.75 64.9469C56.725 64.9469 64 57.6719 64 48.6969C64 39.7219 56.725 32.4469 47.75 32.4469" fill="#767676"/>
<mask id="mask0_4_6659" style="mask-type:luminance" maskUnits="userSpaceOnUse" x="14" y="14" width="50" height="51">
<path fill-rule="evenodd" clip-rule="evenodd" d="M51.525 61.9069C52.5275 60.1119 53.3175 57.6319 53.7825 54.7269C56.6825 54.2619 59.1675 53.4744 60.96 52.4719C59.66 57.0194 56.0725 60.6044 51.525 61.9069M34.54 52.4719C36.335 53.4744 38.8175 54.2619 41.7175 54.7269C42.185 57.6319 42.9725 60.1119 43.975 61.9069C39.4275 60.6044 35.8425 57.0194 34.54 52.4719M16.5 44.9469V43.6969C16.5 37.4919 21.5475 32.4469 27.75 32.4469C31.3775 32.4469 34.5775 34.1944 36.6275 36.8719C33.765 39.5669 31.8825 43.2844 31.565 47.4469H19C17.62 47.4469 16.5 46.3244 16.5 44.9469M21.5 23.6969C21.5 20.2494 24.3025 17.4469 27.75 17.4469C31.1975 17.4469 34 20.2494 34 23.6969C34 27.1419 31.1975 29.9469 27.75 29.9469C24.3025 29.9469 21.5 27.1419 21.5 23.6969M60.96 44.9219C59.1675 43.9194 56.6825 43.1294 53.7825 42.6644C53.3175 39.7619 52.5275 37.2794 51.525 35.4869C56.0725 36.7894 59.66 40.3719 60.96 44.9219M51.1825 42.3444C50.075 42.2494 48.93 42.1969 47.75 42.1969C46.5725 42.1969 45.4275 42.2494 44.3175 42.3444C45.2275 37.4869 47 34.9469 47.75 34.9469C48.5 34.9469 50.2725 37.4869 51.1825 42.3444M43.975 35.4869C42.9725 37.2794 42.185 39.7619 41.7175 42.6644C38.8175 43.1294 36.335 43.9194 34.54 44.9219C35.8425 40.3719 39.4275 36.7894 43.975 35.4869M34 48.6969C34 47.9469 36.5425 46.1744 41.3975 45.2644C41.3025 46.3719 41.2525 47.5169 41.2525 48.6969C41.2525 49.8769 41.3025 51.0219 41.3975 52.1294C36.5425 51.2194 34 49.4469 34 48.6969M47.75 52.6969C46.3725 52.6969 45.1325 52.6094 43.9575 52.4894C43.8375 51.3144 43.7525 50.0744 43.7525 48.6969C43.7525 47.3194 43.8375 46.0794 43.9575 44.9044C45.1325 44.7819 46.3725 44.6969 47.75 44.6969C49.1275 44.6969 50.3675 44.7819 51.545 44.9044C51.665 46.0794 51.75 47.3194 51.75 48.6969C51.75 50.0744 51.665 51.3144 51.545 52.4894C50.3675 52.6094 49.1275 52.6969 47.75 52.6969M47.75 62.4469C47 62.4469 45.2275 59.9044 44.3175 55.0469C45.4275 55.1419 46.5725 55.1969 47.75 55.1969C48.93 55.1969 50.075 55.1419 51.1825 55.0469C50.2725 59.9044 48.5 62.4469 47.75 62.4469M54.1025 52.1294C54.1975 51.0219 54.25 49.8769 54.25 48.6969C54.25 47.5169 54.1975 46.3719 54.1025 45.2644C58.96 46.1744 61.5 47.9469 61.5 48.6969C61.5 49.4469 58.96 51.2194 54.1025 52.1294M47.75 32.4469C44.3475 32.4469 41.19 33.4969 38.58 35.2844C37.065 33.3369 35.05 31.8019 32.72 30.8894C35.0025 29.3094 36.5 26.6819 36.5 23.6969C36.5 18.8644 32.5825 14.9469 27.75 14.9469C22.92 14.9469 19 18.8644 19 23.6969C19 26.6819 20.5025 29.3094 22.7825 30.8894C17.6525 32.8869 14 37.8669 14 43.6969V44.9469C14 47.7044 16.245 49.9469 19 49.9469H31.565C32.2025 58.3344 39.1975 64.9469 47.75 64.9469C56.725 64.9469 64 57.6719 64 48.6969C64 39.7219 56.725 32.4469 47.75 32.4469" fill="white"/>
</mask>
<g mask="url(#mask0_4_6659)">
<rect width="60" height="60" transform="translate(9 9.9469)" fill="url(#paint1_linear_4_6659)"/>
<rect x="9" y="9.9469" width="60" height="60" fill="#0033AA"/>
</g>
<defs>
<linearGradient id="paint0_linear_4_6659" x1="-39.5" y1="40.4469" x2="39.5" y2="119.447" gradientUnits="userSpaceOnUse">
<stop stop-color="#F2F3F4"/>
<stop offset="1" stop-color="#E8E8E8"/>
</linearGradient>
<linearGradient id="paint1_linear_4_6659" x1="78.0736" y1="29.7962" x2="30.8092" y2="-23.6322" gradientUnits="userSpaceOnUse">
<stop stop-color="#B105C5"/>
<stop offset="1" stop-color="#AA0050"/>
</linearGradient>
</defs>
</svg>
