<svg width="51" height="60" viewBox="0 0 51 60" fill="none" xmlns="http://www.w3.org/2000/svg">
<g filter="url(#filter0_d_27_1109)">
<path d="M25.6797 59.1134C12.6854 54.8048 4.50154 45.5795 3.24065 33.7737C2.70775 28.7757 3.59751 17.4966 4.19227 11.2395C4.38863 8.49291 6.34781 6.19895 9.01694 5.59037C14.8877 4.34433 20.8693 3.7027 26.8692 3.67542C32.8628 3.70377 38.8379 4.34539 44.7024 5.59037C47.3791 6.19163 49.3474 8.48731 49.5461 11.2395L49.5842 11.6512C50.3645 20.0914 51.0782 29.3358 50.4644 33.8791C48.5612 47.7912 37.67 56.0303 28.1015 59.099L26.874 59.5012L25.6797 59.1134Z" fill="#0051FF"/>
</g>
<path fill-rule="evenodd" clip-rule="evenodd" d="M26.9923 44.1196C27.4973 44.1196 27.9708 43.9255 28.3271 43.5708L39.9073 32.0025C42.8451 29.0843 42.8451 24.3355 39.9048 21.416C38.4956 20.0073 36.6105 19.2308 34.597 19.2308C32.5847 19.2308 30.6958 20.006 29.2779 21.416L26.9948 23.6958L24.7244 21.4197C23.3027 20.006 21.4138 19.2308 19.4015 19.2308C17.3879 19.2308 15.5016 20.0085 14.0912 21.4185C11.1534 24.3355 11.1534 29.0843 14.0937 32.005L25.6562 43.5671C26.0126 43.923 26.4848 44.1172 26.9873 44.1196H26.9923ZM34.597 21.7196C35.9331 21.7196 37.1822 22.2348 38.1179 23.1682C40.0861 25.122 40.0861 28.2965 38.1204 30.2491L26.9923 41.3645L15.8806 30.2516C13.9124 28.2965 13.9124 25.122 15.8781 23.1707C16.815 22.2348 18.0654 21.7196 19.4015 21.7196C20.7388 21.7196 21.9943 22.2348 22.9362 23.1707L26.0957 26.3403C26.3325 26.578 26.6548 26.7111 26.9911 26.7124H26.9923C27.3285 26.7124 27.6509 26.578 27.8876 26.3428L31.0648 23.1682C32.0042 22.2348 33.2596 21.7196 34.597 21.7196Z" fill="white"/>
<defs>
<filter id="filter0_d_27_1109" x="0.0071485" y="0.605415" width="50.689" height="58.8958" filterUnits="userSpaceOnUse" color-interpolation-filters="sRGB">
<feFlood flood-opacity="0" result="BackgroundImageFix"/>
<feColorMatrix in="SourceAlpha" type="matrix" values="0 0 0 0 0 0 0 0 0 0 0 0 0 0 0 0 0 0 127 0" result="hardAlpha"/>
<feOffset dx="-3.07" dy="-3.07"/>
<feComposite in2="hardAlpha" operator="out"/>
<feColorMatrix type="matrix" values="0 0 0 0 0 0 0 0 0 0 0 0 0 0 0.196078 0 0 0 0.15 0"/>
<feBlend mode="normal" in2="BackgroundImageFix" result="effect1_dropShadow_27_1109"/>
<feBlend mode="normal" in="SourceGraphic" in2="effect1_dropShadow_27_1109" result="shape"/>
</filter>
</defs>
</svg>
