<svg width="51" height="60" viewBox="0 0 51 60" fill="none" xmlns="http://www.w3.org/2000/svg">
<g filter="url(#filter0_d_18_1009)">
<path d="M25.6797 59.1134C12.6854 54.8048 4.50154 45.5795 3.24065 33.7737C2.70775 28.7757 3.59751 17.4966 4.19227 11.2395C4.38863 8.49291 6.34781 6.19895 9.01694 5.59037C14.8877 4.34433 20.8693 3.7027 26.8692 3.67542C32.8628 3.70377 38.8379 4.34539 44.7024 5.59037C47.3791 6.19163 49.3474 8.48731 49.5461 11.2395L49.5842 11.6512C50.3645 20.0914 51.0782 29.3358 50.4644 33.8791C48.5612 47.7912 37.67 56.0303 28.1015 59.099L26.874 59.5012L25.6797 59.1134Z" fill="#0051FF"/>
</g>
<path fill-rule="evenodd" clip-rule="evenodd" d="M34.3554 29.1567C33.6337 29.1567 32.9243 29.4841 32.439 30.0646L26.8888 37.2159L21.3386 30.0646C20.8532 29.4841 20.1439 29.1567 19.4097 29.1567C18.0283 29.1567 16.9332 30.3026 16.9332 31.6752V46.7863H19.4221V31.6752L25.4203 39.4058C25.7738 39.8604 26.3151 40.1273 26.8888 40.1273C27.4625 40.1273 28.0038 39.8604 28.3572 39.4058L34.3554 31.6752V46.7863H36.8443V31.6752C36.8443 30.29 35.7243 29.1567 34.3554 29.1567M16.9332 21.6011C16.9332 20.2109 18.0495 19.0826 19.4221 19.0826C20.7935 19.0826 21.911 20.2109 21.911 21.6011C21.911 22.9913 20.7935 24.1196 19.4221 24.1196C18.0495 24.1196 16.9332 22.9913 16.9332 21.6011M24.3999 21.6011C24.3999 18.8245 22.1674 16.5641 19.4221 16.5641C16.6769 16.5641 14.4443 18.8245 14.4443 21.6011C14.4443 24.3778 16.6769 26.6382 19.4221 26.6382C22.1674 26.6382 24.3999 24.3778 24.3999 21.6011M34.3554 24.1196C32.9828 24.1196 31.8666 22.9913 31.8666 21.6011C31.8666 20.2109 32.9828 19.0826 34.3554 19.0826C35.7268 19.0826 36.8443 20.2109 36.8443 21.6011C36.8443 22.9913 35.7268 24.1196 34.3554 24.1196M34.3554 16.5641C31.6102 16.5641 29.3777 18.8245 29.3777 21.6011C29.3777 24.3778 31.6102 26.6382 34.3554 26.6382C37.1007 26.6382 39.3332 24.3778 39.3332 21.6011C39.3332 18.8245 37.1007 16.5641 34.3554 16.5641" fill="white"/>
<defs>
<filter id="filter0_d_18_1009" x="0.0071485" y="0.605415" width="50.689" height="58.8958" filterUnits="userSpaceOnUse" color-interpolation-filters="sRGB">
<feFlood flood-opacity="0" result="BackgroundImageFix"/>
<feColorMatrix in="SourceAlpha" type="matrix" values="0 0 0 0 0 0 0 0 0 0 0 0 0 0 0 0 0 0 127 0" result="hardAlpha"/>
<feOffset dx="-3.07" dy="-3.07"/>
<feComposite in2="hardAlpha" operator="out"/>
<feColorMatrix type="matrix" values="0 0 0 0 0 0 0 0 0 0 0 0 0 0 0.196078 0 0 0 0.15 0"/>
<feBlend mode="normal" in2="BackgroundImageFix" result="effect1_dropShadow_18_1009"/>
<feBlend mode="normal" in="SourceGraphic" in2="effect1_dropShadow_18_1009" result="shape"/>
</filter>
</defs>
</svg>
