<svg width="51" height="60" viewBox="0 0 51 60" fill="none" xmlns="http://www.w3.org/2000/svg">
<g filter="url(#filter0_d_27_1072)">
<path d="M25.6797 59.1134C12.6854 54.8048 4.50154 45.5795 3.24065 33.7737C2.70775 28.7757 3.59751 17.4966 4.19227 11.2395C4.38863 8.49291 6.34781 6.19895 9.01694 5.59037C14.8877 4.34433 20.8693 3.7027 26.8692 3.67542C32.8628 3.70377 38.8379 4.34539 44.7024 5.59037C47.3791 6.19163 49.3474 8.48731 49.5461 11.2395L49.5842 11.6512C50.3645 20.0914 51.0782 29.3358 50.4644 33.8791C48.5612 47.7912 37.67 56.0303 28.1015 59.099L26.874 59.5012L25.6797 59.1134Z" fill="#0051FF"/>
</g>
<path fill-rule="evenodd" clip-rule="evenodd" d="M16.9259 25.6292C14.843 25.6292 13.1481 27.3245 13.1481 29.4076V42.0022H15.6666V29.4076C15.6666 28.7136 16.2307 28.1481 16.9259 28.1481C17.621 28.1481 18.1851 28.7136 18.1851 29.4076V42.0022H20.7036V29.4076C20.7036 27.3245 19.0087 25.6292 16.9259 25.6292ZM37.0741 25.6292C34.9913 25.6292 33.2963 27.3245 33.2963 29.4076V42.0022H35.8148V29.4076C35.8148 28.7136 36.379 28.1481 37.0741 28.1481C37.7692 28.1481 38.3333 28.7136 38.3333 29.4076V42.0022H40.8519V29.4076C40.8519 27.3245 39.1569 25.6292 37.0741 25.6292ZM23.2222 34.4455C23.2222 32.3623 24.9171 30.6671 27 30.6671C29.0828 30.6671 30.7778 32.3623 30.7778 34.4455V44.5212H28.2592V34.4455C28.2592 33.7515 27.6951 33.186 27 33.186C26.3049 33.186 25.7407 33.7515 25.7407 34.4455V44.5212H23.2222V34.4455ZM16.9233 21.8508C15.5356 21.8508 14.4073 20.7223 14.4073 19.3344C14.4073 17.9465 15.5356 16.818 16.9233 16.818C18.311 16.818 19.4393 17.9465 19.4393 19.3344C19.4393 20.7223 18.311 21.8508 16.9233 21.8508ZM16.9233 14.2991C14.1479 14.2991 11.8888 16.5573 11.8888 19.3344C11.8888 22.1115 14.1479 24.3698 16.9233 24.3698C19.6988 24.3698 21.9579 22.1115 21.9579 19.3344C21.9579 16.5573 19.6988 14.2991 16.9233 14.2991ZM37.0765 16.8179C38.4642 16.8179 39.5925 17.9464 39.5925 19.3343C39.5925 20.7222 38.4642 21.8507 37.0765 21.8507C35.6888 21.8507 34.5605 20.7222 34.5605 19.3343C34.5605 17.9464 35.6888 16.8179 37.0765 16.8179ZM37.0765 24.3696C39.8519 24.3696 42.111 22.1114 42.111 19.3343C42.111 16.5572 39.8519 14.299 37.0765 14.299C34.3011 14.299 32.0419 16.5572 32.0419 19.3343C32.0419 22.1114 34.3011 24.3696 37.0765 24.3696ZM27.0024 26.8838C25.6147 26.8838 24.4863 25.7553 24.4863 24.3674C24.4863 22.9794 25.6147 21.8509 27.0024 21.8509C28.3901 21.8509 29.5184 22.9794 29.5184 24.3674C29.5184 25.7553 28.3901 26.8838 27.0024 26.8838ZM27.0024 19.332C24.2269 19.332 21.9678 21.5902 21.9678 24.3674C21.9678 27.1445 24.2269 29.4027 27.0024 29.4027C29.7778 29.4027 32.0369 27.1445 32.0369 24.3674C32.0369 21.5902 29.7778 19.332 27.0024 19.332Z" fill="white"/>
<defs>
<filter id="filter0_d_27_1072" x="0.0071485" y="0.605415" width="50.689" height="58.8958" filterUnits="userSpaceOnUse" color-interpolation-filters="sRGB">
<feFlood flood-opacity="0" result="BackgroundImageFix"/>
<feColorMatrix in="SourceAlpha" type="matrix" values="0 0 0 0 0 0 0 0 0 0 0 0 0 0 0 0 0 0 127 0" result="hardAlpha"/>
<feOffset dx="-3.07" dy="-3.07"/>
<feComposite in2="hardAlpha" operator="out"/>
<feColorMatrix type="matrix" values="0 0 0 0 0 0 0 0 0 0 0 0 0 0 0.196078 0 0 0 0.15 0"/>
<feBlend mode="normal" in2="BackgroundImageFix" result="effect1_dropShadow_27_1072"/>
<feBlend mode="normal" in="SourceGraphic" in2="effect1_dropShadow_27_1072" result="shape"/>
</filter>
</defs>
</svg>
